<svg width="156" height="24" viewBox="0 0 156 24" fill="none" xmlns="http://www.w3.org/2000/svg">
<path d="M149.566 23.8256V0H156V23.8256H149.566Z" fill="#4D6194"/>
<path d="M52.8772 0L58.9642 16.5427L65.554 0H72.2306L62.658 23.8256H55.5132L49.2875 7.80314L43.0791 23.8256H35.9343L26.3444 0H33.0383L39.4894 16.1959L45.7151 0H52.8772Z" fill="#4D6194"/>
<path d="M106.119 23.8256L90.0432 7.45633V23.8256H83.6094V0H90.5981L106.691 16.4386V0H113.09V23.8256H106.119Z" fill="#4D6194"/>
<path d="M74.5671 23.8256V0H81.0009V23.8256H74.5671Z" fill="#4D6194"/>
<mask id="mask0_105_224" style="mask-type:alpha" maskUnits="userSpaceOnUse" x="0" y="0" width="28" height="24">
<path d="M27.1745 17.2536C27.1745 18.1784 27.0531 18.9819 26.8103 19.6639C26.5676 20.346 26.2265 20.9355 25.7872 21.4326C25.3594 21.9182 24.8392 22.317 24.2264 22.6291C23.6252 22.9297 22.9547 23.1724 22.2148 23.3574C21.4864 23.5308 20.706 23.6522 19.8736 23.7215C19.0412 23.7909 18.1799 23.8256 17.2897 23.8256H0V0H16.9776C17.6597 0 18.3418 0.0289005 19.0239 0.0867016C19.7176 0.144503 20.3765 0.254325 21.0009 0.416167C21.6252 0.56645 22.2032 0.780314 22.735 1.05776C23.2784 1.3352 23.7466 1.69935 24.1397 2.1502C24.5443 2.60105 24.8565 3.14438 25.0762 3.78019C25.3074 4.416 25.423 5.16741 25.423 6.03443C25.423 7.5835 25.0415 8.81466 24.2784 9.72791C23.5154 10.6296 22.313 11.2307 20.6714 11.5313C21.8275 11.6122 22.816 11.7914 23.6368 12.0689C24.4692 12.3347 25.1455 12.7047 25.6658 13.1786C26.186 13.641 26.5676 14.2133 26.8103 14.8953C27.0531 15.5658 27.1745 16.3519 27.1745 17.2536Z" fill="#262626"/>
</mask>
<g mask="url(#mask0_105_224)">
<path d="M27.1745 17.2536C27.1745 18.1784 27.0531 18.9819 26.8103 19.6639C26.5676 20.346 26.2265 20.9355 25.7872 21.4326C25.3594 21.9182 24.8392 22.317 24.2264 22.6291C23.6252 22.9297 22.9547 23.1724 22.2148 23.3574C21.4864 23.5308 20.706 23.6522 19.8736 23.7215C19.0412 23.7909 18.1799 23.8256 17.2897 23.8256H0V0H16.9776C17.6597 0 18.3418 0.0289005 19.0239 0.0867016C19.7176 0.144503 20.3765 0.254325 21.0009 0.416167C21.6252 0.56645 22.2032 0.780314 22.735 1.05776C23.2784 1.3352 23.7466 1.69935 24.1397 2.1502C24.5443 2.60105 24.8565 3.14438 25.0762 3.78019C25.3074 4.416 25.423 5.16741 25.423 6.03443C25.423 7.5835 25.0415 8.81466 24.2784 9.72791C23.5154 10.6296 22.313 11.2307 20.6714 11.5313C21.8275 11.6122 22.816 11.7914 23.6368 12.0689C24.4692 12.3347 25.1455 12.7047 25.6658 13.1786C26.186 13.641 26.5676 14.2133 26.8103 14.8953C27.0531 15.5658 27.1745 16.3519 27.1745 17.2536Z" fill="#1A2332"/>
<mask id="mask1_105_224" style="mask-type:alpha" maskUnits="userSpaceOnUse" x="-19" y="-11" width="41" height="38">
<path d="M17.3977 4.02091C17.6354 5.01952 18.1783 6.244 18.42 6.73141C18.42 7.38526 18.1228 7.69435 17.7662 8.01533C17.4095 8.33631 16.3396 8.49086 15.9949 9.37058C15.719 10.0744 16.1098 11.0349 16.3396 11.4272C16.9863 11.7126 17.3461 12.2039 17.4452 12.414C17.74 12.9751 17.782 13.8524 17.7662 14.221C18.2988 15.4668 18.21 17.2762 18.0991 18.0252C18.0119 18.1322 17.8589 18.358 17.9445 18.4056C18.0301 18.4531 18.1783 18.6473 18.2417 18.7385L18.9431 19.1545C19.8276 20.2102 20.6431 23.9138 20.9403 25.6336H-18.243C-18.1638 24.9084 -17.9672 23.1918 -17.8151 22.1266C-17.6249 20.7951 -16.5906 18.2035 -16.4004 17.7398C-16.2102 17.2762 -13.6542 12.6755 -13.3689 12.0216C-13.1406 11.4986 -12.1405 9.2834 -11.6689 8.24121C-10.8922 5.8715 -9.02734 0.723137 -7.78146 -0.912674C-6.22412 -2.95744 -7.59125 -2.11338 -1.67095 -6.83297C4.24935 -11.5526 10.241 -9.03228 10.7878 -7.62948C11.2253 -6.50724 12.4918 -4.57026 13.0704 -3.74205C16.3277 -0.223159 17.1004 2.77266 17.3977 4.02091Z" fill="#C4C4C4" stroke="black"/>
</mask>
<g mask="url(#mask1_105_224)">
<path d="M17.3977 4.02091C17.6354 5.01952 18.1783 6.244 18.42 6.73141C18.42 7.38526 18.1228 7.69435 17.7662 8.01533C17.4095 8.33631 16.3396 8.49086 15.9949 9.37058C15.719 10.0744 16.1098 11.0349 16.3396 11.4272C16.9863 11.7126 17.3461 12.2039 17.4452 12.414C17.74 12.9751 17.782 13.8524 17.7662 14.221C18.2988 15.4668 18.21 17.2762 18.0991 18.0252C18.0119 18.1322 17.8589 18.358 17.9445 18.4056C18.0301 18.4531 18.1783 18.6473 18.2417 18.7385C15.1022 21.0876 13.5102 21.1727 12.5354 21.7909L12.546 21.8035C13.427 22.8551 14.3198 23.9206 14.6158 25.6336H-18.243C-18.1638 24.9084 -17.9672 23.1918 -17.8151 22.1266C-17.6249 20.7951 -16.5906 18.2035 -16.4004 17.7398C-16.2102 17.2762 -13.6542 12.6755 -13.3689 12.0216C-13.1406 11.4986 -12.1405 9.2834 -11.6689 8.24121C-10.8922 5.8715 -9.02734 0.723137 -7.78146 -0.912674C-6.22411 -2.95744 -7.59125 -2.11338 -1.67095 -6.83297C4.24935 -11.5526 10.241 -9.03228 10.7878 -7.62948C11.2253 -6.50724 12.4918 -4.57026 13.0704 -3.74205C16.3277 -0.223159 17.1004 2.77266 17.3977 4.02091Z" fill="#1A2332"/>
<path d="M17.3976 4.02091C17.6354 5.01952 18.1783 6.244 18.42 6.73141C18.42 7.38526 18.1228 7.69435 17.7662 8.01533C17.4095 8.33631 16.3396 8.49086 15.9948 9.37058C15.719 10.0744 16.1098 11.0349 16.3396 11.4272C16.9863 11.7125 17.3461 12.2039 17.4452 12.4139C17.74 12.9751 17.782 13.8524 17.7662 14.2209C18.2988 15.4668 18.21 17.2762 18.099 18.0252C18.0119 18.1322 17.8589 18.358 17.9445 18.4056C18.0301 18.4531 18.1783 18.6473 18.2417 18.7384C18.2417 18.7384 18.2893 18.9762 18.1941 19.1426C18.099 19.3091 17.9445 19.3091 17.9445 19.3091C16.6725 19.8084 17.1955 20.3433 14.0571 21.4371L10.1696 22.4713C8.05354 22.4713 6.15146 20.3434 5.40248 18.7384C4.26747 16.3063 2.84833 14.7542 1.02768 12.9965C0.076623 12.0783 -2.49125 10.7825 -3.73948 10.4881C-5.87058 9.98546 -11.6689 11.1985 -13.9039 13.065C-13.9039 13.065 -11.9013 8.75481 -11.6689 8.24121C-10.8922 5.8715 -9.02734 0.723135 -7.78147 -0.912675C-6.22412 -2.95744 -7.59126 -2.11338 -1.67096 -6.83298C4.24935 -11.5526 10.241 -9.03228 10.7878 -7.62948C11.2253 -6.50724 12.4918 -4.57026 13.0704 -3.74205C16.3277 -0.22316 17.1004 2.77265 17.3976 4.02091Z" fill="#4D6194"/>
<path d="M14.9487 5.31825C15.6525 5.33727 17.5404 5.50846 17.8019 7.00637C17.8019 7.00637 17.8956 6.85272 18.0516 6.69728C18.4807 6.2696 19.2166 7.06581 19.2166 7.06581L18.432 18.2288C18.3781 18.2449 17.9697 18.2361 17.9446 18.3908C18.0753 18.4978 18.1164 18.5584 18.218 18.688C18.2366 18.7118 18.2519 18.7501 18.2537 18.7638C18.3131 19.2274 18.0516 19.3463 17.9564 19.3344C17.8613 19.3225 17.6236 18.6924 14.9844 18.9302C12.3452 19.168 11.7152 18.1337 11.4536 17.5987C11.1921 17.0638 11.1445 15.0903 11.1445 14.2819C11.1445 13.4735 12.2987 11.2512 12.4285 10.4302C12.6543 9.00076 11.7523 8.41591 12.2264 6.69728C12.6068 5.31825 14.069 5.29447 14.9487 5.31825Z" fill="#F8BA35"/>
<path d="M16.4704 6.49355C17.003 6.76936 16.8271 7.20684 16.8271 7.4446C16.8271 7.68237 17.0607 7.67599 17.2075 7.60822C17.362 7.53689 17.6355 7.38235 17.6355 7.38235C17.6355 7.38235 17.6355 7.47745 17.6117 7.56067C17.5879 7.64389 17.6474 7.71522 17.7544 7.69144C17.8613 7.66766 18.0516 7.57256 18.1704 7.46557C18.2893 7.35857 18.4082 7.05229 18.4082 7.05229L18.4795 8.57398L16.4704 9.42993C16.4704 9.42993 16.2208 8.70475 15.2697 9.03762C14.3187 9.37049 13.225 8.49076 13.011 7.95579C12.1648 5.84053 15.8047 6.1488 16.4704 6.49355Z" fill="#1A2332"/>
<path d="M14.3217 8.40336C13.9645 8.45913 13.4814 7.87455 13.4914 7.46271C14.0554 6.88577 14.6873 7.05509 14.9327 7.21187C14.9829 7.86405 14.5463 8.27794 14.3217 8.40336Z" fill="#F8BA35"/>
<path d="M17.1123 14.4943C16.823 14.1971 16.2428 13.3707 16.7438 13.0678C17.255 12.7587 17.4095 14.4943 17.1123 14.4943Z" fill="#1A2332"/>
<path d="M16.4127 15.1684C15.231 13.3906 15.427 12.0819 15.6632 11.5161C15.6765 11.4843 15.6389 11.4538 15.6116 11.4749C14.393 12.4211 15.3348 14.1406 16.3649 15.2106C16.3928 15.2396 16.435 15.2019 16.4127 15.1684Z" fill="#1A2332"/>
<path d="M12.7137 17.1811C13.6886 18.0371 16.0662 18.1849 16.8865 18.0609C17.3268 17.9943 17.7141 18.2382 17.9445 18.3909C18.01 18.4343 18.0834 18.4333 18.1228 18.4623C18.4557 18.4337 18.5429 18.2205 18.4795 18.0937C18.424 18.0937 18.3368 18.0462 18.2893 18.0462C18.2298 18.0462 18.1942 18.0818 18.0277 18.058C17.9212 18.0428 17.7592 17.9185 17.6449 17.8859C17.312 17.7908 17.1327 17.753 16.8474 17.753C16.6572 17.753 16.2802 17.8203 16.0662 17.8084C15.8522 17.7965 15.2657 17.7554 15.1111 17.7197C14.9566 17.6841 14.0976 17.5037 13.748 17.3685C13.4778 17.264 12.8163 16.9244 12.6023 16.7976C12.6023 16.7976 12.5235 16.9881 12.7137 17.1811Z" fill="#1A2332"/>
<path d="M3.97593 4.69567C4.06152 4.92392 4.14236 5.31386 4.52278 5.71805C4.69849 5.90474 5.99692 5.29571 6.08013 4.90059C6.16335 4.50546 6.38923 4.22014 6.59132 4.16352C6.79342 4.1069 7.83958 4.03751 7.69692 3.01037C7.5186 1.72645 6.50811 1.39358 6.18713 1.35792C5.86615 1.32225 5.07224 1.29566 4.86754 1.64042C4.64167 2.02084 4.68921 2.08309 4.17802 2.80827C3.66683 3.53345 3.86893 4.41036 3.97593 4.69567Z" fill="#1A2332"/>
<path d="M5.01044 4.42367C5.01044 4.42367 5.20461 4.42367 5.09366 4.11458C4.98271 3.80549 4.8725 3.46261 4.90104 3.30093C4.9367 3.09884 5.17673 2.95374 5.24808 2.85864C5.31943 2.76353 5.41052 2.56472 5.43829 2.48538C5.47892 2.36931 5.58947 2.38782 5.74043 2.42575C5.8712 2.45859 5.96638 2.48294 6.09715 2.56616C6.16849 2.61155 6.19226 2.59953 6.27548 2.71842C6.34205 2.81352 6.27061 2.9218 6.16361 2.9852L5.65242 3.16353C5.60142 3.1861 5.56187 3.22589 5.53875 3.27269C5.47713 3.3974 5.55405 3.5526 5.65242 3.65094C5.79498 3.79344 6.16361 3.72227 6.16361 3.72227C6.24287 3.69849 6.42753 3.63192 6.53215 3.55584C6.66292 3.46073 6.94823 3.44884 7.16222 3.37751C7.3762 3.30619 7.11467 3.02087 7.05522 2.91388C6.99578 2.80688 6.62932 2.21474 6.40138 2.12926C6.30627 2.09359 6.11606 2.01038 5.86641 2.01038C5.61676 2.01038 5.35522 2.01038 5.16501 2.15303C5.07994 2.21683 5.0129 2.34324 4.92968 2.52157C4.84646 2.69989 4.6253 2.96859 4.48264 3.08747C4.33998 3.20635 4.58247 3.84115 4.64191 4.11458C4.68946 4.33332 4.90741 4.41178 5.01044 4.42367Z" fill="#F8BA35"/>
<ellipse cx="14.468" cy="7.55627" rx="0.205822" ry="0.388775" transform="rotate(7.92931 14.468 7.55627)" fill="#1A2332"/>
</g>
</g>
<mask id="mask2_105_224" style="mask-type:alpha" maskUnits="userSpaceOnUse" x="116" y="0" width="31" height="24">
<path d="M146.121 11.8955C146.121 13.4214 145.953 14.7797 145.618 15.9704C145.283 17.1496 144.809 18.1784 144.196 19.057C143.595 19.9356 142.866 20.6812 142.011 21.2939C141.167 21.9066 140.225 22.3979 139.184 22.7678C138.144 23.1378 137.022 23.4094 135.82 23.5828C134.618 23.7447 133.363 23.8256 132.057 23.8256H116.935V0H132.022C133.329 0 134.583 0.0867016 135.785 0.260105C136.988 0.421948 138.109 0.687832 139.15 1.05776C140.202 1.42769 141.155 1.91899 142.011 2.53169C142.866 3.13282 143.595 3.87845 144.196 4.76859C144.809 5.64716 145.283 6.67602 145.618 7.85516C145.953 9.0343 146.121 10.3811 146.121 11.8955Z" fill="#262626"/>
</mask>
<g mask="url(#mask2_105_224)">
<path d="M146.121 11.8955C146.121 13.4214 145.953 14.7797 145.618 15.9704C145.283 17.1496 144.809 18.1784 144.196 19.057C143.595 19.9356 142.866 20.6812 142.011 21.2939C141.167 21.9066 140.225 22.3979 139.184 22.7678C138.144 23.1378 137.022 23.4094 135.82 23.5828C134.618 23.7447 133.363 23.8256 132.057 23.8256H116.935V0H132.022C133.329 0 134.583 0.0867016 135.785 0.260105C136.988 0.421948 138.109 0.687832 139.15 1.05776C140.202 1.42769 141.155 1.91899 142.011 2.53169C142.866 3.13282 143.595 3.87845 144.196 4.76859C144.809 5.64716 145.283 6.67602 145.618 7.85516C145.953 9.0343 146.121 10.3811 146.121 11.8955ZM139.635 11.8955C139.635 10.751 139.485 9.75682 139.184 8.91292C138.895 8.06903 138.421 7.37541 137.762 6.83208C137.115 6.27719 136.265 5.86681 135.213 5.60092C134.161 5.32348 132.878 5.18475 131.363 5.18475H123.369V18.6408H131.363C132.878 18.6408 134.161 18.5079 135.213 18.242C136.265 17.9646 137.115 17.5484 137.762 16.9935C138.421 16.4271 138.895 15.7219 139.184 14.878C139.485 14.0341 139.635 13.0399 139.635 11.8955Z" fill="#4D6194"/>
</g>
</svg>
